<svg width="512" height="512" fill="none" xmlns="http://www.w3.org/2000/svg"><path d="M0 102.4c0-35.843 0-53.765 6.976-67.455a64 64 0 0 1 27.969-27.97C48.635 0 66.557 0 102.4 0h307.2c35.843 0 53.765 0 67.455 6.976a63.992 63.992 0 0 1 27.969 27.969C512 48.635 512 66.557 512 102.4v307.2c0 35.843 0 53.765-6.976 67.455a63.984 63.984 0 0 1-27.969 27.969C463.365 512 445.443 512 409.6 512H102.4c-35.843 0-53.765 0-67.455-6.976a63.992 63.992 0 0 1-27.97-27.969C0 463.365 0 445.443 0 409.6V102.4Z" fill="url(#logo__a)"/><path d="M0 102.4c0-35.843 0-53.765 6.976-67.455a64 64 0 0 1 27.969-27.97C48.635 0 66.557 0 102.4 0h307.2c35.843 0 53.765 0 67.455 6.976a63.992 63.992 0 0 1 27.969 27.969C512 48.635 512 66.557 512 102.4v307.2c0 35.843 0 53.765-6.976 67.455a63.984 63.984 0 0 1-27.969 27.969C463.365 512 445.443 512 409.6 512H102.4c-35.843 0-53.765 0-67.455-6.976a63.992 63.992 0 0 1-27.97-27.969C0 463.365 0 445.443 0 409.6V102.4Z" fill="url(#logo__b)"/><mask id="logo__c" style="mask-type:alpha" maskUnits="userSpaceOnUse" x="47" y="16" width="419" height="480"><path d="m59 142 197.454 114V28L59 142Zm197.454 114 197.454-114L256.454 28v228Zm197.454-114L256.454 256l197.454 114V142Z" fill="#000"/><path d="M256.454 256v228l197.454-114-197.454-114Zm0 228V256L59 370l197.454 114Z" fill="#000"/><path d="M256.454 256 59 142v228l197.454-114Z" fill="#000"/><path fill-rule="evenodd" clip-rule="evenodd" d="M250.454 17.608a12 12 0 0 1 12 0l197.454 114a12 12 0 0 1 6 10.392v228a12 12 0 0 1-6 10.392l-197.454 114a11.998 11.998 0 0 1-12 0L53 380.392A11.999 11.999 0 0 1 47 370V142c0-4.287 2.287-8.249 6-10.392l197.454-114ZM71 162.785 232.454 256 71 349.215v-186.43ZM83 370l161.454 93.215v-186.43L83 370Zm185.454-93.215v186.43L429.908 370l-161.454-93.215Zm173.454 72.43L280.454 256l161.454-93.215v186.43Zm-12-207.215-161.454 93.215V48.785L429.908 142ZM244.454 48.785v186.43L83 142l161.454-93.215Z" fill="#000"/></mask><g mask="url(#logo__c)"><mask id="logo__d" style="mask-type:alpha" maskUnits="userSpaceOnUse" x="52" y="131" width="408" height="354"><path d="M256.262 256.215v228m0-228 197.454-114m-197.454 114-197.453-114" stroke="#000" stroke-width="24" stroke-miterlimit="3.864" stroke-linejoin="round"/></mask><g mask="url(#logo__d)"><path fill="url(#logo__e)" d="M0 0h512v512H0z"/></g></g><mask id="logo__f" style="mask-type:alpha" maskUnits="userSpaceOnUse" x="47" y="16" width="419" height="480"><path d="m59 142 197.454 114V28L59 142Zm197.454 114 197.454-114L256.454 28v228Zm197.454-114L256.454 256l197.454 114V142Z" fill="#000"/><path d="M256.454 256v228l197.454-114-197.454-114Zm0 228V256L59 370l197.454 114Z" fill="#000"/><path d="M256.454 256 59 142v228l197.454-114Z" fill="#000"/><path fill-rule="evenodd" clip-rule="evenodd" d="M250.454 17.608a12 12 0 0 1 12 0l197.454 114a12 12 0 0 1 6 10.392v228a12 12 0 0 1-6 10.392l-197.454 114a11.998 11.998 0 0 1-12 0L53 380.392A11.999 11.999 0 0 1 47 370V142c0-4.287 2.287-8.249 6-10.392l197.454-114ZM71 162.785 232.454 256 71 349.215v-186.43ZM83 370l161.454 93.215v-186.43L83 370Zm185.454-93.215v186.43L429.908 370l-161.454-93.215Zm173.454 72.43L280.454 256l161.454-93.215v186.43Zm-12-207.215-161.454 93.215V48.785L429.908 142ZM244.454 48.785v186.43L83 142l161.454-93.215Z" fill="#000"/></mask><g mask="url(#logo__f)"><path fill-rule="evenodd" clip-rule="evenodd" d="M267.999 1h-24c0 134.757-109.242 244-244 244v24c134.758 0 244 109.242 244 244h24c0-134.758 109.243-244 244-244v-24c-134.757 0-244-109.243-244-244Z" fill="#fff"/></g><mask id="logo__g" style="mask-type:alpha" maskUnits="userSpaceOnUse" x="47" y="16" width="419" height="480"><path d="m59 142 197.454 114V28L59 142Zm197.454 114 197.454-114L256.454 28v228Zm197.454-114L256.454 256l197.454 114V142Z" fill="#000"/><path d="M256.454 256v228l197.454-114-197.454-114Zm0 228V256L59 370l197.454 114Z" fill="#000"/><path d="M256.454 256 59 142v228l197.454-114Z" fill="#000"/><path fill-rule="evenodd" clip-rule="evenodd" d="M250.454 17.608a12 12 0 0 1 12 0l197.454 114a12 12 0 0 1 6 10.392v228a12 12 0 0 1-6 10.392l-197.454 114a11.998 11.998 0 0 1-12 0L53 380.392A11.999 11.999 0 0 1 47 370V142c0-4.287 2.287-8.249 6-10.392l197.454-114ZM71 162.785 232.454 256 71 349.215v-186.43ZM83 370l161.454 93.215v-186.43L83 370Zm185.454-93.215v186.43L429.908 370l-161.454-93.215Zm173.454 72.43L280.454 256l161.454-93.215v186.43Zm-12-207.215-161.454 93.215V48.785L429.908 142ZM244.454 48.785v186.43L83 142l161.454-93.215Z" fill="#000"/></mask><g mask="url(#logo__g)"><mask id="logo__h" style="mask-type:alpha" maskUnits="userSpaceOnUse" x="53" y="27" width="407" height="354"><path d="m256.489 255.822 197.454 114m-197.454-114v-228m0 228-197.453 114" stroke="#000" stroke-width="24" stroke-miterlimit="3.864" stroke-linejoin="round"/></mask><g mask="url(#logo__h)"><path fill="url(#logo__i)" d="M0 0h512v512H0z"/></g></g><mask id="logo__j" style="mask-type:alpha" maskUnits="userSpaceOnUse" x="47" y="16" width="419" height="480"><path d="m256.454 28 197.454 114v228L256.454 484 59 370V142L256.454 28Z" stroke="#000" stroke-width="24" stroke-miterlimit="3.864" stroke-linejoin="round"/></mask><g mask="url(#logo__j)"><path fill="url(#logo__k)" d="M0 0h512v512H0z"/></g><defs><linearGradient id="logo__a" x1=".485" y1="0" x2="511.515" y2="512" gradientUnits="userSpaceOnUse"><stop stop-color="#FEE074"/><stop offset="1" stop-color="#F66"/></linearGradient><linearGradient id="logo__b" x1=".485" y1="0" x2="511.515" y2="512" gradientUnits="userSpaceOnUse"><stop stop-color="#FEE074"/><stop offset="1" stop-color="#F66"/></linearGradient><linearGradient id="logo__e" x1="0" y1="35.298" x2="439.141" y2="540.087" gradientUnits="userSpaceOnUse"><stop stop-color="#00FFAE"/><stop offset="1" stop-color="#00406B"/></linearGradient><linearGradient id="logo__i" x1="0" y1="35.298" x2="439.141" y2="540.087" gradientUnits="userSpaceOnUse"><stop stop-color="#00FFAE"/><stop offset="1" stop-color="#00406B"/></linearGradient><linearGradient id="logo__k" x1="0" y1="35.297" x2="439.141" y2="540.086" gradientUnits="userSpaceOnUse"><stop stop-color="#00FFAE"/><stop offset="1" stop-color="#00406B"/></linearGradient></defs></svg>